<svg width="1200" height="520" viewBox="0 0 1200 520" fill="none" xmlns="http://www.w3.org/2000/svg" role="img" aria-label="10 轮 input token 对比">
  <rect width="1200" height="520" rx="24" fill="#F8FAFC"/>
  <text x="54" y="62" fill="#0F172A" font-family="Inter, Arial, sans-serif" font-size="28" font-weight="800">10 轮 input tokens：线性堆叠 vs 上下文稳态</text>
  <text x="54" y="95" fill="#475569" font-family="Inter, Arial, sans-serif" font-size="16">真实 provider dogfood：San 第 10 轮 598 tokens；无稳态对照第 10 轮 198,340 tokens。</text>
  <g transform="translate(80 130)">
    <line x1="0" y1="320" x2="1030" y2="320" stroke="#CBD5E1"/>
    <line x1="0" y1="0" x2="0" y2="320" stroke="#CBD5E1"/>
    <g fill="#64748B" font-family="Inter, Arial, sans-serif" font-size="13">
      <text x="-8" y="324" text-anchor="end">0</text>
      <text x="-8" y="244" text-anchor="end">50k</text>
      <text x="-8" y="164" text-anchor="end">100k</text>
      <text x="-8" y="84" text-anchor="end">150k</text>
      <text x="-8" y="8" text-anchor="end">200k</text>
    </g>
    <g stroke="#E2E8F0">
      <line x1="0" y1="240" x2="1030" y2="240"/>
      <line x1="0" y1="160" x2="1030" y2="160"/>
      <line x1="0" y1="80" x2="1030" y2="80"/>
    </g>
    <polyline points="0,292 114,268 229,238 343,193 458,175 572,130 687,102 801,67 916,31 1030,3" fill="none" stroke="#EF4444" stroke-width="5"/>
    <polyline points="0,317 114,319 229,318 343,319 458,319 572,318 687,319 801,318 916,319 1030,319" fill="none" stroke="#2563EB" stroke-width="5"/>
    <g fill="#EF4444">
      <circle cx="0" cy="292" r="5"/><circle cx="458" cy="175" r="5"/><circle cx="1030" cy="3" r="6"/>
    </g>
    <g fill="#2563EB">
      <circle cx="0" cy="317" r="5"/><circle cx="458" cy="319" r="5"/><circle cx="1030" cy="319" r="6"/>
    </g>
    <g fill="#64748B" font-family="Inter, Arial, sans-serif" font-size="13">
      <text x="0" y="352" text-anchor="middle">1</text>
      <text x="458" y="352" text-anchor="middle">5</text>
      <text x="1030" y="352" text-anchor="middle">10</text>
      <text x="516" y="384" text-anchor="middle">Turn</text>
    </g>
    <rect x="742" y="40" width="256" height="96" rx="14" fill="white" stroke="#E2E8F0"/>
    <circle cx="768" cy="70" r="6" fill="#EF4444"/><text x="786" y="75" fill="#334155" font-family="Inter, Arial, sans-serif" font-size="15">无稳态：198,340</text>
    <circle cx="768" cy="104" r="6" fill="#2563EB"/><text x="786" y="109" fill="#334155" font-family="Inter, Arial, sans-serif" font-size="15">San：598</text>
  </g>
</svg>
